<?xml version="1.0" standalone="no"?>
<!DOCTYPE svg PUBLIC "-//W3C//DTD SVG 20010904//EN"
 "http://www.w3.org/TR/2001/REC-SVG-20010904/DTD/svg10.dtd">
<svg version="1.0" xmlns="http://www.w3.org/2000/svg"
 width="461.000000pt" height="461.000000pt" viewBox="0 0 461.000000 461.000000"
 preserveAspectRatio="xMidYMid meet">

<g transform="translate(0.000000,461.000000) scale(0.100000,-0.100000)"
fill="#000000" stroke="none">
<path d="M757 3843 l-367 -368 582 -582 583 -583 -583 -583 -582 -582 370
-370 370 -370 112 110 c62 60 325 321 585 579 260 259 474 468 477 466 76 -74
549 -542 814 -804 l352 -351 370 370 370 370 -582 583 -583 584 585 579 585
579 -372 372 -373 373 -582 -582 -583 -583 -584 578 c-321 317 -586 578 -590
580 -3 1 -171 -163 -374 -365z m905 -790 l638 -638 377 376 c208 207 497 494
643 637 l265 261 53 -52 53 -52 -642 -639 -643 -640 641 -636 642 -637 -55
-54 -54 -54 -640 640 -640 640 -640 -640 -640 -640 -52 53 -53 52 640 641 640
640 -637 633 c-351 349 -638 637 -638 642 0 9 91 104 100 104 3 0 292 -287
642 -637z"/>
</g>
</svg>
